<?xml version="1.0" encoding="UTF-8" standalone="no"?>
<!-- Created with Inkscape (http://www.inkscape.org/) -->

<svg
   version="1.1"
   id="svg590"
   width="467.362"
   height="278.349"
   viewBox="0 0 467.362 278.34899"
   sodipodi:docname="logo-ovh-long-baseline-blue.svg"
   inkscape:version="1.2.2 (732a01da63, 2022-12-09)"
   xmlns:inkscape="http://www.inkscape.org/namespaces/inkscape"
   xmlns:sodipodi="http://sodipodi.sourceforge.net/DTD/sodipodi-0.dtd"
   xmlns="http://www.w3.org/2000/svg"
   xmlns:svg="http://www.w3.org/2000/svg">
  <defs
     id="defs594">
    <clipPath
       clipPathUnits="userSpaceOnUse"
       id="clipPath606">
      <path
         d="M 0,208.762 H 1200 V 0 H 0 Z"
         id="path604" />
    </clipPath>
  </defs>
  <sodipodi:namedview
     id="namedview592"
     pagecolor="#ffffff"
     bordercolor="#000000"
     borderopacity="0.25"
     inkscape:showpageshadow="2"
     inkscape:pageopacity="0.0"
     inkscape:pagecheckerboard="0"
     inkscape:deskcolor="#d1d1d1"
     showgrid="false"
     inkscape:zoom="0.8875"
     inkscape:cx="787.60563"
     inkscape:cy="139.71831"
     inkscape:window-width="2560"
     inkscape:window-height="1377"
     inkscape:window-x="-8"
     inkscape:window-y="-8"
     inkscape:window-maximized="1"
     inkscape:current-layer="g602">
    <inkscape:page
       x="0"
       y="0"
       id="page596"
       width="467.362"
       height="278.349" />
  </sodipodi:namedview>
  <g
     id="g598"
     inkscape:groupmode="layer"
     inkscape:label="Page 1"
     transform="matrix(1.3333333,0,0,-1.3333333,0,278.34933)">
    <g
       id="g600">
      <g
         id="g602"
         clip-path="url(#clipPath606)">
        <g
           id="g608"
           transform="translate(327.7734,197.2104)">
          <path
             d="M 0,0 -37.417,-65.024 H -76.72 l -46.382,-80.487 h 39.368 l -29.775,-51.699 h 96.697 c 24.718,30.211 39.56,68.816 39.56,110.897 C 22.748,-54.923 14.455,-25.485 0,0"
             style="fill:#183f6c;fill-opacity:1;fill-rule:nonzero;stroke:none"
             id="path610" />
        </g>
        <g
           id="g612"
           transform="translate(136.2671,5e-4)">
          <path
             d="M 0,0 V 0 H 0.097 L 0.048,0.084 120.2,208.762 H 18.555 L -50.74,88.329 -113.462,197.31 c -14.49,-25.508 -22.805,-54.982 -22.805,-86.414 0,-42.08 14.842,-80.685 39.56,-110.896 z"
             style="fill:#183f6c;fill-opacity:1;fill-rule:nonzero;stroke:none"
             id="path614" />
        </g>
      </g>
    </g>
  </g>
</svg>
